<?xml version="1.0" encoding="UTF-8" standalone="no"?>
<!DOCTYPE svg PUBLIC "-//W3C//DTD SVG 1.1//EN" "http://www.w3.org/Graphics/SVG/1.1/DTD/svg11.dtd">
<!-- Created with Vectornator (http://vectornator.io/) -->
<svg height="100%" stroke-miterlimit="10" style="fill-rule:nonzero;clip-rule:evenodd;stroke-linecap:round;stroke-linejoin:round;" version="1.1" viewBox="85.6204 202.754 2560.76 1642.49" width="100%" xml:space="preserve" xmlns="http://www.w3.org/2000/svg" xmlns:xlink="http://www.w3.org/1999/xlink">
<defs/>
<g id="Layer-4">
<path d="M2153.3 202.791C2146.14 202.985 2139.05 204.505 2132.83 207.463C2121.16 213.004 2116.46 227.454 2108.26 237.452C2086.45 220.004 2055.91 212.81 2028.04 213.518C1907.04 216.595 1786.26 225.253 1665.34 230.359C1641.24 231.376 1568.66 205.559 1560.78 218.478C1548.62 238.403 1543.95 262.681 1541.86 285.954C1531.75 398.57 1532.75 511.963 1524.33 624.718C1521.9 657.213 1516.11 689.438 1509.39 721.319C1507.13 732.044 1506.19 745.345 1497.51 752C1473.36 770.527 1422.46 766.712 1410.54 805.577C1393.29 861.862 1473.13 860.479 1482.58 902.581C1498.19 972.16 1476.47 1045.25 1478.6 1116.54C1479.7 1153.57 1484.37 1190.63 1492.26 1226.81C1549.62 1489.87 1694.58 1778.89 1979.94 1838.36C2009.27 1844.48 2072.73 1833.03 2095.92 1816.1C2168.12 1763.39 2234.88 1703.35 2300.65 1642.74C2326.43 1618.98 2350.91 1593.03 2369.97 1563.56C2418.67 1488.28 2466.33 1411.62 2503.14 1329.81C2544.49 1237.89 2534.31 1130.17 2560.12 1032.69C2562.98 1021.89 2580.48 1022.14 2587.45 1013.43C2595.89 1002.89 2605.6 990.297 2604.81 976.805C2603.29 950.858 2579.3 928.518 2580.99 902.581C2589.26 775.702 2622.21 651.518 2634.28 524.946C2638.7 478.604 2661.28 419.963 2630.3 385.323C2578.17 327.028 2492.21 311.336 2418.99 284.224C2352.11 259.455 2280.97 248.296 2211.95 230.359C2201.41 269.175 2201.39 269.227 2190.84 308.042C2282.7 327.52 2376.34 345.93 2461.9 384.746C2503.93 403.812 2581.05 402.997 2584.51 449.165C2586.16 471.116 2587.1 493.069 2587.74 515.027C2588.05 477.682 2593.12 431.518 2623.15 431.518C2623.15 492.176 2618.17 552.253 2610 612.377C2608.16 625.972 2609.66 644.824 2595.06 649.402C2590.86 642.882 2588.64 633.64 2587.39 623.565C2580.77 817.838 2545.28 1012.18 2523.44 1205.65C2518.91 1245.75 2502.62 1283.98 2486.07 1320.76C2457.79 1383.58 2425.73 1444.85 2389.41 1503.35C2345.58 1573.92 2281.42 1636.83 2220.95 1692.63C2175.72 1734.36 2132.93 1793.91 2071.98 1801.57C2002.01 1810.37 1971.5 1798.46 1915.81 1753.47C1874.82 1720.36 1852.95 1663.01 1862.4 1611.2C1863.43 1605.57 1868.81 1600.87 1874.05 1598.62C1925.98 1576.33 1946.16 1579.18 2004.1 1585.42C2012.72 1586.34 2021.91 1587.64 2029.13 1592.45C2051.51 1607.35 2070.74 1626.61 2091.53 1643.66C2033.34 1547.37 1961.36 1550.16 1867.48 1585.42C1869.38 1580.27 1868.8 1573.24 1873.19 1569.96C1895.59 1553.18 1917.86 1532.2 1945.33 1527.05C1978.34 1520.86 2012.82 1529.93 2045.51 1537.66C2119.88 1555.26 2153.97 1587.02 2217.31 1629.3C2231.71 1608.73 2230.25 1578.17 2223.02 1554.1C2211.22 1514.81 2195.12 1476.39 2174.12 1441.18C2144.97 1392.3 2095.68 1356.61 2046.72 1327.8C2057.27 1316.03 2064.61 1300.25 2078.38 1292.56C2123.74 1267.23 2183.89 1259.8 2215.47 1218.45C2200.38 1221.54 2184.17 1221.18 2170.2 1227.68C2135.31 1243.91 2149.86 1264.85 2107.16 1261.88C2069.11 1259.23 2032.24 1220.59 2036.17 1181.37C2042.38 1119.28 2057.4 1058.27 2062.98 996.125C2066.94 952.191 2058.49 907.436 2064.71 863.768C2070.06 826.323 2099.86 824.416 2087.26 790.583C2084.4 782.877 2079.73 774.929 2072.67 770.744C2043.85 753.642 2014.03 736.563 1981.67 727.951C1949.38 719.36 1906.37 734.305 1883.05 710.303C1916.11 693.748 1963.34 685.019 1976.42 650.325C1954.58 664.485 1930.31 682.297 1904.39 680.314C1945.76 642.05 1984.58 600.787 2028.5 565.49C2032.09 562.598 2037.23 568.538 2041.59 570.046C2016.17 599.591 2021.34 582.345 2027.4 622.066C2049.53 622.121 2049.5 622.126 2071.64 622.181C2081.86 574.795 2106.18 553.633 2053.76 532.732C2039.41 527.011 2021.67 520.923 2007.73 527.599C1936.99 561.495 1877.29 636.195 1798.91 636.195C1768.36 636.195 1732.26 632.688 1713.44 603.899C1702.21 586.733 1701.47 553.743 1681.14 551.475C1684.65 532.067 1684.66 532.07 1688.18 512.662C1677.63 510.898 1677.67 510.908 1667.13 509.144C1676.03 446.382 1671.29 393.361 1635.46 339.762C1624.48 423.863 1619.72 509.029 1602.53 592.076C1600.48 601.992 1587 605.042 1579.23 611.512C1591.54 459.776 1591.56 459.778 1603.86 308.042C1767.89 303.926 1932.08 304.655 2095.92 295.643C2104.69 295.16 2109.99 285.076 2117.02 279.783C2179.06 346.851 2221.91 223.957 2174.12 206.136C2167.66 203.729 2160.45 202.598 2153.3 202.791ZM2587.39 623.565C2588.14 601.782 2588.38 580.003 2588.32 558.223C2587.98 568.928 2584.33 598.732 2587.39 623.565ZM1972.09 228.398C1983.67 228.317 1997.51 228.507 2013.33 228.628C2069.16 231.083 2071.31 232.912 2106.47 269.229C2084.64 284.977 2014.22 276.438 1987.84 266.98C1978.11 263.493 1979.83 254.513 1967.77 253.081C1957.41 251.852 1942.65 257.501 1934.66 247.026C1922.79 231.444 1937.36 228.64 1972.09 228.398ZM2162.7 233.934C2181.41 241.448 2191.48 258.618 2162.7 258.618C2162.7 246.267 2162.7 246.285 2162.7 233.934ZM2272.45 263.289C2315.38 264.859 2368.57 280.436 2391.19 308.042C2360.14 301.198 2255.32 289.881 2234.44 266.461C2244.96 263.802 2258.14 262.766 2272.45 263.289ZM2218.93 286.819C2251.22 286.819 2346.28 298.836 2363.05 329.208C2345.26 335.052 2295.1 308.042 2271.7 308.042C2264.57 285.615 2221.08 311.5 2218.93 286.819ZM1561.64 293.913C1603.53 331.285 1581.07 442.954 1575.72 487.979C1572.4 515.851 1568.09 543.628 1563.83 571.372C1561.71 585.234 1557.34 585 1544.11 586.77C1552.9 440.328 1552.86 440.355 1561.64 293.913ZM1962.35 470.331C1906.76 589.918 1835.25 572.698 1723.36 572.699C1758.06 622.052 1890.58 589.872 1930.74 554.59C1949.24 538.343 1995.75 491.193 1962.35 470.331ZM1874.51 495.015C1850.01 568.802 1769.16 523.276 1747.92 547.957C1765.54 552.506 1761.64 546.912 1765.51 558.569C1789.71 558.198 1826.42 564.978 1849.02 547.957C1862.66 537.689 1901.2 510.324 1874.51 495.015ZM2293.21 509.49C2291.43 509.7 2289.55 510.165 2287.5 510.932C2284.48 585.669 2372.34 646.914 2437.56 660.475C2453.44 663.776 2488.19 670.58 2502.79 657.361C2454.38 620.909 2391.79 642.932 2340.21 586.77C2318.09 562.685 2319.93 506.337 2293.21 509.49ZM2247.07 540.921C2194.8 542.636 2169.62 562.949 2182.6 619.989C2184.21 627.07 2186.01 634.595 2190.5 640.29C2200.82 653.378 2224.2 646.498 2237.85 656.034C2251.46 665.545 2264.39 701.724 2278.73 714.687C2299.02 733.016 2338.6 738.74 2352.5 759.671C2316.01 753.565 2232.33 742.251 2219.62 792.14C2239.63 799.826 2235.04 793.041 2240.04 805.577C2256.96 803.861 2277.65 796.53 2291.08 807.019C2275.14 826.138 2247.73 831.818 2228.39 847.447C2181.84 885.056 2183.12 934.091 2176.77 989.089C2233.66 983.897 2275.43 1025.1 2332.77 1029C2354.05 1030.44 2389.65 1023.12 2407.46 1016.83C2429.14 1009.16 2433.76 992.607 2450.94 992.607C2450.94 989.078 2450.94 989.042 2450.94 985.513C2470.63 1002.35 2492.52 983.222 2514.21 985.513C2514.21 976.692 2514.21 976.688 2514.21 967.866C2492.16 969.375 2487.17 976.981 2465.01 974.96C2466.31 973.397 2499.07 937.505 2502.44 924.554C2506.31 909.7 2458.43 874.368 2507.17 890.24C2508.93 881.418 2508.93 881.414 2510.69 872.592C2485.58 864.011 2470.97 837.196 2452.67 817.919C2444.13 808.924 2431.78 804.205 2423.26 795.196C2398.48 769.006 2476.37 763.277 2489.06 743.292C2513.08 705.492 2519.22 682.837 2538.83 636.195C2512.46 632.311 2512.12 684.992 2479.09 689.138C2479.09 692.667 2479.09 692.645 2479.09 696.174C2432.23 690.01 2380.27 682.392 2345.06 646.345C2319.59 620.269 2289.81 560.414 2247.07 547.957C2247.07 544.429 2247.07 544.45 2247.07 540.921ZM2005.02 552.11C2010.78 551.904 2016.48 552.795 2022.1 555.051C1983.67 572.585 1961.26 600.795 1929.42 627.948C1910.52 644.063 1872.22 651.429 1853.41 657.361C1858.41 637.258 1879.49 640.551 1894.47 629.448C1922.18 608.902 1964.72 553.549 2005.02 552.11ZM1677.68 558.569C1682.87 574.188 1703.21 659.242 1702.25 682.044C1641.91 653.354 1620.04 652.706 1656.11 600.035C1665.06 586.969 1667.39 570.772 1677.68 558.569ZM2057.28 590.288C2057.28 600.875 2057.27 600.925 2057.28 611.512C2040.81 604.901 2034.89 590.288 2057.28 590.288ZM2217.2 611.512C2230.7 611.062 2240.06 637.983 2223.77 637.983C2204.33 637.983 2193.39 612.304 2217.2 611.512ZM2264.66 611.512C2286.73 611.512 2293.7 633.541 2307.69 649.402C2331.19 676.068 2380.32 691.005 2394.71 720.857C2329.95 718.956 2287.98 667.609 2264.66 611.512ZM2257.63 646.749C2279.05 653.917 2284.58 682.227 2299.38 697.962C2313.57 713.045 2336.24 720.998 2352.5 734.987C2300.87 713.404 2279.31 698.785 2257.63 646.749ZM1863.32 783.489C1874.38 782.411 1913.03 788.576 1920.19 800.272C1932.54 820.436 1941.98 842.243 1951.79 863.768C1954.32 869.302 1979.23 918.618 1974.69 936.146C1968.71 959.209 1902.49 956.903 1893.83 957.312C1815.36 961.025 1754.49 948.005 1698.73 888.509C1686.69 875.66 1664.56 863.575 1667.13 846.121C1673.21 804.726 1837.81 821.077 1860.44 784.412C1860.72 783.957 1861.74 783.643 1863.32 783.489ZM1470.29 798.484C1497.88 798.39 1499.85 831.509 1469.71 828.934C1444.85 826.81 1445.49 798.568 1470.29 798.484ZM1941.3 798.484C1969.84 804.624 1982.24 830.178 1995.74 854.944C2026.1 910.662 2003.04 940.657 2001.91 1000.51C2001.44 1025.62 2040.17 1058.54 2020.83 1088.75C2013.64 1099.98 1997.62 1075.71 1986.11 1069.02C1959.07 1053.32 1952.76 1086.49 1947.18 1102.99C1958.11 1109.48 1973.7 1100.1 1985.19 1105.53C1995.88 1110.58 2002.52 1122.23 2008.2 1132.63C2039.11 1189.34 1949.56 1193.39 1937.78 1140.82C1831.31 1210.63 1863.3 1260.45 1965.87 1311.94C1942.03 1331.08 1907.8 1330.95 1879.3 1341.93C1819.16 1365.1 1780.21 1411.2 1735.64 1458.36C1715.43 1430.91 1695.35 1409.42 1686.45 1375.43C1680.65 1353.32 1677.59 1330.41 1676.87 1307.55C1673.3 1193.57 1831.81 1225.69 1853.41 1151.38C1820.2 1157.37 1791.86 1181.8 1758.48 1186.67C1748.07 1188.19 1739.32 1177.19 1731.83 1169.77C1707.9 1146.08 1684.78 1121.29 1664.93 1094.05C1621.26 1034.1 1652.45 988.351 1579.23 950.218C1601.52 917.78 1623.15 928.06 1635.46 904.369C1611.77 903.812 1584.97 906.867 1565.16 893.815C1675.97 851.128 1705.02 960.715 1811.3 979.458C1869.82 989.777 1926.55 963.891 1983.46 978.477C1984.63 944.955 1987.48 911.438 1986.97 877.898C1986.56 850.977 1952.39 824.245 1941.3 798.484ZM2359.53 824.955C2386.55 830.508 2383.87 841.289 2401.75 854.944C2426.52 873.863 2456.62 892.113 2476.43 916.711C2499.69 945.585 2387.41 994.502 2370.09 1000.51C2306.32 1022.62 2253.91 962.976 2194.36 960.83C2194.36 912.965 2243.63 863.281 2285.66 846.121C2292.47 843.336 2301.09 845.728 2307.28 841.738C2314.41 837.148 2316.07 826.808 2359.53 824.955ZM1623.18 830.261C1636.36 830.261 1636.35 830.261 1649.54 830.261C1649.54 900.833 1548.45 837.617 1623.18 830.261ZM2571.02 960.253C2572.5 967.586 2572.47 967.626 2573.96 974.96C2565.17 974.96 2565.15 974.959 2556.37 974.96C2562.99 959.48 2557.36 963.355 2571.02 960.253ZM2247.13 1285.75C2241.69 1285.97 2241.08 1295.57 2254.11 1320.76C2245.93 1316.07 2189.97 1274.15 2185.54 1301.38C2185.06 1304.3 2186.98 1307.78 2189.52 1309.28C2220.42 1327.65 2248.63 1332.37 2265.07 1369.26C2287.56 1419.74 2284.21 1477.46 2278.27 1530.74C2276.61 1545.65 2268.18 1555.74 2268.18 1571.29C2290.4 1565.63 2295.24 1521.46 2297.19 1501.16C2303.54 1434.94 2287.59 1382.02 2273.08 1318.45C2269.04 1300.75 2254.12 1285.48 2247.13 1285.75ZM1824.05 1288.41C1773.21 1286.13 1745.22 1357.02 1744.46 1398.39C1753.1 1396.76 1768.99 1347.97 1777.86 1337.83C1793.62 1319.8 1833.46 1313.79 1834.49 1289.91C1830.9 1289.07 1827.44 1288.56 1824.05 1288.41ZM2138.13 1356.05C2138.13 1370.09 2221.75 1486.26 2229.48 1490.14C2218.88 1442.23 2187.82 1373.32 2138.13 1356.05ZM1982.42 1361.59C2003.03 1361.45 2025.31 1363.71 2050.24 1368.4C2147.07 1386.62 2198.86 1517.84 2210.16 1604.85C2170.17 1592.17 2128.82 1550.3 2088.88 1532.93C1994.29 1491.82 1903.91 1493.94 1801.9 1509C1780.76 1512.12 1757.28 1515.12 1740.95 1528.96C1731.43 1537.02 1723.19 1546.75 1712.8 1553.64C1717.46 1499.02 1778.21 1459.69 1817.36 1428.84C1873.92 1384.26 1920.58 1362.02 1982.42 1361.59ZM1804.21 1574.8C1825.74 1594.61 1826.09 1651.49 1828.78 1677.17C1800.08 1665.65 1757.16 1595.06 1804.21 1574.8Z" fill="#000000" fill-rule="nonzero" opacity="1" stroke="#000000" stroke-linecap="butt" stroke-linejoin="round" stroke-width="0.0294762"/>
<path d="M628.171 256.838C622.578 251.601 618.617 243.679 611.392 241.125C602.626 238.026 592.373 238.273 583.499 241.047C470.848 276.262 361.599 322.135 248.146 354.676C203.794 367.397 156.537 366.649 111.448 376.443C103.383 378.195 93.6682 381.557 90.1116 389.004C84.6583 400.423 84.7658 414.484 87.3673 426.867C109.328 531.412 141.404 633.656 163.462 738.18C175.334 794.439 182.958 851.591 189.062 908.764C189.809 915.761 188.244 923.721 183.857 929.222C168.164 948.896 144.342 961.55 130.299 982.433C123.291 992.856 117.385 1008.3 123.194 1019.44C132.652 1037.57 151.795 1049.93 170.181 1058.89C185.476 1066.34 203.789 1064.22 220.593 1066.88C229.683 1117.68 233.65 1169.66 247.865 1219.27C262.675 1270.95 282.792 1321.34 307.233 1369.22C334.438 1422.52 367.374 1472.9 402.176 1521.58C437.479 1570.97 474.538 1619.57 517.133 1662.82C550.178 1696.37 588.069 1725.36 627.787 1750.66C666.515 1775.33 708.636 1794.62 751.175 1811.9C784.547 1825.47 818.94 1838.61 854.709 1842.87C894.435 1847.61 935.122 1844.71 974.652 1838.55C993.624 1835.6 1011.47 1826.31 1027.63 1815.93C1048.39 1802.59 1069.3 1787.85 1084.2 1768.19C1129.03 1709.05 1168.16 1645.64 1205.37 1581.43C1228.41 1541.66 1250.2 1500.55 1264.58 1456.89C1292.41 1372.38 1317.58 1286.37 1331.5 1198.5C1340.4 1142.36 1338.7 1084.49 1332.54 1027.98C1327.94 985.794 1299.86 947.458 1299.53 905.019C1299.4 888.66 1324.96 882.692 1331.29 867.603C1336.75 854.55 1339.23 837.872 1332.98 825.177C1320.78 800.434 1285.65 789.022 1279.32 762.173C1250.09 638.327 1251.44 509.004 1228.81 383.785C1220.2 336.169 1227.32 270.077 1185.87 245.12C1116.97 203.644 1026.9 218.995 946.645 213.916C876.62 209.483 806.328 215.743 736.169 216.656C737.981 229.49 742.378 242.22 741.604 255.158C740.668 270.81 734.617 285.73 731.123 301.015C775.383 296.393 819.403 286.834 863.903 287.147C928.328 287.601 992.711 294.311 1056.51 303.307C1089.14 307.909 1135.85 299.254 1152.29 327.816C1195.09 402.184 1197.43 493.517 1214.4 577.629C1232.26 666.161 1237.63 756.971 1256.67 845.259C1271.09 912.186 1302.19 974.985 1314.57 1042.32C1322.46 1085.22 1321.25 1129.74 1316.98 1173.14C1310.32 1240.67 1299.42 1308.1 1281.91 1373.65C1266.73 1430.5 1247.21 1486.89 1219.34 1538.72C1179.12 1613.54 1136.14 1688.62 1078.85 1751.35C1056.54 1775.78 1020.65 1785.32 988.202 1791.81C960.464 1797.36 930.238 1795.7 903.51 1786.44C873.341 1775.98 847.543 1754.96 822.987 1734.56C809.712 1723.52 798.507 1709.2 791.56 1693.4C786.917 1682.84 781.494 1666.94 789.701 1658.83C811.733 1637.06 842.106 1624.65 871.379 1614.53C911.01 1600.83 954.859 1602.14 994.365 1588.08C1015.18 1580.67 1033.33 1566.31 1049.41 1551.17C1064.73 1536.74 1077.29 1519.18 1087.21 1500.63C1100.92 1474.99 1110.84 1447.38 1119.72 1419.7C1134.27 1374.34 1147.81 1328.52 1157.39 1281.86C1163.16 1253.76 1162.88 1224.75 1165.63 1196.2C1177.62 1208.78 1177.62 1208.78 1189.62 1221.36C1223.18 1201.5 1223.18 1201.5 1256.73 1181.64C1237.92 1182.94 1218.89 1188.72 1200.3 1185.55C1187.62 1183.39 1175.83 1175.52 1166.86 1166.31C1160.82 1160.1 1165.56 1145.85 1157.82 1141.93C1127.42 1126.56 1092.62 1122.16 1060.02 1112.28C1065.94 1120.31 1069.2 1131.28 1077.78 1136.38C1093.57 1145.75 1112.62 1148.01 1130.04 1153.82C1082.9 1144.83 1082.9 1144.83 1035.77 1135.85C1050.58 1146.01 1063.64 1159.38 1080.2 1166.34C1098.05 1173.83 1118.08 1174.35 1137.02 1178.36C1132.67 1190.76 1132.66 1205.69 1123.98 1215.55C1109.38 1232.14 1090.13 1244.77 1070.18 1254.28C1028.99 1273.92 982.604 1281.53 941.992 1302.34C929.087 1308.95 925.655 1327.66 913.04 1334.81C906.722 1338.39 897.857 1334.59 891.609 1330.89C886.657 1327.95 882.105 1322.23 882.1 1316.47C882.094 1308.82 885.923 1300.72 891.581 1295.57C928.158 1262.25 970.634 1235.82 1007.22 1202.51C1015.19 1195.25 1018.48 1184.1 1024.11 1174.9C1017.77 1174.88 1010.1 1170.94 1005.1 1174.83C983.469 1191.67 969.097 1216.48 948.085 1234.08C937.896 1242.61 925.796 1250.6 912.613 1252.29C901.091 1253.77 888.765 1249.29 879.045 1242.93C862.371 1232.02 841.275 1220.99 835.582 1201.89C814.676 1131.79 817.134 1056.59 802.128 984.986C794.146 946.896 772.323 912.229 766.804 873.705C763.768 852.52 779.155 831.635 777.105 810.332C776.16 800.512 767.492 791.359 758.49 787.324C737.128 777.751 712.901 776.669 690.106 771.341C707.622 757.976 730.821 749.83 742.653 731.245C750.706 718.595 747.786 700.861 744.254 686.287C740.779 671.952 732.998 658.08 722.424 647.796C716.189 641.733 706.017 640.224 697.331 640.653C690.048 641.013 681.888 644.144 677.561 650.013C671.87 657.732 669.339 668.195 669.97 677.764C670.426 684.683 677.036 689.696 680.569 695.662C657.943 681.123 657.943 681.123 635.317 666.584C640.019 674.51 642.66 684.103 649.422 690.364C662.618 702.583 679.095 710.692 693.932 720.856C662.659 702.249 633.016 680.581 600.114 665.035C580.952 655.98 558.073 656.789 538.96 647.629C530.754 643.695 526.963 633.942 520.964 627.098C567.534 633.301 567.534 633.301 614.105 639.505C612.039 633.894 613.094 625.648 607.908 622.672C591.921 613.497 573.589 607.738 555.265 605.738C516.735 601.533 476.811 595.728 438.998 604.238C400.922 612.806 368.848 638.468 333.773 655.583C330.908 635.772 330.908 635.772 328.044 615.961C366.903 595.45 407.115 577.319 444.62 554.426C448.116 552.292 446.968 546.577 448.142 542.653C443.986 540.785 440.028 535.707 435.672 537.048C405.027 546.483 372.471 554.646 346.797 573.855C323.584 591.223 314.135 622.1 294.052 643.007C290.992 646.192 285.224 642.703 280.81 642.551C295.056 619.234 303.594 591.267 323.549 572.6C348.532 549.229 378.854 529.557 411.727 520.082C450.723 508.842 492.655 510.934 533.219 512.167C556.913 512.887 579.736 521.317 602.995 525.893C605.381 518.995 605.381 518.995 607.766 512.097C589.649 505.79 572.555 494.461 553.415 493.176C505.51 489.958 456.616 489.619 409.485 498.778C381.029 504.307 354.528 519.35 331.072 536.382C310.906 551.024 297.761 573.457 281.106 591.994C274.527 586.392 265.737 582.644 261.369 575.188C250.726 557.021 249.475 533.905 237.097 516.874C227.244 503.317 210.345 496.679 196.97 486.582C211.156 566.979 231.136 646.566 239.53 727.772C241.136 743.311 230.881 757.795 226.556 772.807C212.243 691.774 200.59 610.226 183.616 529.709C179.417 509.791 169.991 491.344 163.178 472.161C254.267 439.525 344.424 404.162 436.444 374.253C492.896 355.905 551.324 344.24 608.272 327.497C620.89 323.787 634.713 321.209 644.95 312.951C651.559 307.62 651.791 297.406 655.211 289.633C663.67 295.198 670.908 303.356 680.587 306.329C687.832 308.554 697.159 308.906 703.241 304.383C711.545 298.205 716.904 287.8 719.095 277.685C721.812 265.139 722.282 251.067 717.355 239.213C711.903 226.098 702.005 213.847 689.65 206.842C681.177 202.037 667.986 200.789 660.429 206.934C645.062 219.431 638.924 240.204 628.171 256.838ZM872.352 228.844C888.958 229.282 905.587 230.037 922.094 231.904C924.584 232.186 944.907 239.803 932.177 245.922C913.269 255.01 890.226 246.676 869.256 247.283C834.883 248.278 800.566 250.701 766.208 252.133C753.019 252.683 761.653 235.788 771.092 234.602C787.914 232.487 804.746 230.216 821.673 229.253C838.539 228.294 855.464 228.398 872.352 228.844ZM697.712 236.037C711.681 242.722 707.263 269.704 689.619 262.711C676.706 257.593 682.727 228.867 697.712 236.037ZM910.168 269.194C908.227 270.66 908.524 270.747 905.151 270.87C891.114 271.385 877.049 271.091 863.024 271.875C836.06 273.383 809.112 275.207 782.185 277.278C771.782 278.078 761.393 280.34 750.979 279.701C753.083 275.431 756.161 263.753 763.605 263.068C769.703 262.506 775.858 263.003 781.973 262.668C806.995 261.296 831.97 259.103 857.003 257.948C865.462 257.557 873.941 257.811 882.406 258.033C891.829 258.281 906.211 258.904 910.168 269.194ZM604.807 258.911C608.026 277.338 637.883 275.014 633.463 290.034C631.362 297.173 621.075 298.445 614.239 301.385C604.902 305.4 595.333 308.902 585.632 311.935C565.232 318.315 548.41 321.471 527.144 323.576C524.494 323.839 521.282 324.687 519.173 323.062C515.153 319.964 513.875 308.45 506.176 308.368C496.367 308.263 492.436 316.059 483.619 315.744C475.505 315.455 462.204 311.665 454.878 309.858C462.166 301.457 465.242 295.546 476.737 292.149C517.8 280.012 559.377 269.68 600.823 258.924C602.108 258.59 603.479 258.915 604.807 258.911ZM1182.7 294.275C1193.31 310.076 1198.97 334.494 1203.47 350.659C1219.38 407.897 1222.52 459.308 1224.59 518.614C1221.86 517.004 1215.09 514.01 1213.93 510.014C1208.83 492.361 1205.96 474.116 1200.98 456.428C1194.9 434.849 1186.89 413.849 1180.77 392.28C1176.97 378.879 1173.91 365.265 1171.26 351.591C1167.44 331.86 1163.45 306.394 1182.7 294.275ZM125.314 468.961C149.134 493.714 160.081 528.697 168.029 562.134C176.503 597.787 184.394 633.579 191.944 669.438C196.843 692.704 199.289 715.832 196.732 739.529C195.048 755.13 183.381 759.026 179.397 741.148C168.324 691.467 160.118 641.166 148.613 591.583C139.978 554.364 128.693 517.809 119.001 480.852C117.196 473.972 118.746 462.136 125.314 468.961ZM909.135 730.137C910.329 747.956 893.906 738.752 898.429 757.234C898.85 758.955 900.867 760.13 902.59 760.541C909.541 762.199 916.707 763.125 923.851 763.297C944.844 763.8 956.255 742.934 976.144 748.396C968.873 775.211 943.745 778.695 930.349 801.954C913.827 830.64 899.724 857.538 901.51 891.376C902.242 905.252 909.641 918.147 910.936 931.982C911.567 938.728 907.323 945.185 907.18 951.959C907.112 955.187 909.275 958.068 910.322 961.122C920.597 960.238 928.069 948.928 938.34 948C954.75 946.519 970.945 953.027 987.38 954.196C1019.93 956.511 1071.36 957.588 1102.24 944.701C1116.73 938.655 1131.09 931.594 1143.51 921.991C1158.25 910.598 1167.91 893.408 1182.9 882.351C1190.73 876.575 1202.09 877.643 1210.43 872.634C1216.31 869.107 1218.4 860.914 1224.33 857.482C1229.38 854.561 1235.84 855.564 1241.59 854.605C1229.61 835.689 1213.34 860.561 1202.6 867.134C1198 869.95 1192.33 870.407 1187.19 872.044C1192.73 858.854 1199.76 846.194 1203.83 832.476C1207.05 821.633 1207.19 810.107 1208.87 798.922C1200.73 796.319 1191.71 795.607 1184.44 791.113C1181.03 789.005 1180.76 783.985 1178.93 780.421C1192.85 770.094 1203.93 779.225 1208.25 760.447C1198.32 757.877 1187.47 757.646 1178.47 752.737C1159.49 742.394 1144.86 724.953 1125.51 715.341C1107.92 706.607 1088.31 702.424 1069.09 698.418C1050.75 694.598 1031.98 692.945 1013.28 691.953C1004.32 691.478 994.927 691.108 986.446 694.034C968.564 700.202 952.968 711.81 935.399 718.817C932.491 719.977 929.154 718.359 926.032 718.13C926.407 696.909 943.515 695.915 959.457 682.328C975.89 668.322 989.049 650.524 1006.47 637.766C1022.58 625.967 1040.84 617.21 1059.18 609.291C1076.9 601.636 1095.22 594.754 1114.2 591.228C1121.95 589.788 1130.18 592.02 1137.58 594.723C1147.49 598.343 1157.11 603.326 1165.35 609.91C1181.34 622.678 1185.44 645.593 1196.49 662.817C1199.4 667.358 1207.57 661.896 1208.48 659.219C1211.35 650.752 1209.86 638.882 1206.51 630.907C1200.66 616.963 1192.13 604.213 1186.63 590.127C1182.4 579.325 1182.17 567.158 1177.45 556.565C1169.51 538.755 1147.33 523.366 1132.01 515.047C1078.3 485.873 1004.61 505.5 957.883 538.883C929.892 558.881 910.861 589.132 888.35 615.144C880.544 624.164 864.591 617.903 853.003 620.735C842.447 623.316 833.56 631.425 828.494 640.695C812.559 669.853 810.958 715.02 844.227 732.999C851.325 736.835 859.267 740.587 867.328 740.231C881.65 739.6 895.199 733.502 909.135 730.137ZM548.552 530.714C546.407 531.031 545.372 534.779 546.206 536.781C547.571 540.063 550.678 542.927 554.073 543.979C573.078 549.865 593.024 552.191 612.267 557.243C641.243 564.85 670.579 576.956 693.043 597.333C719.785 621.59 748.85 656.207 758.922 691.512C763.62 707.98 764.046 725.462 768.645 741.958C769.531 745.135 777.035 745.384 778.343 742.505C782.199 734.021 781.063 721.383 779.577 712.782C774.539 683.616 764.932 652.102 745.442 629.045C699.91 575.178 653.028 550.431 583.765 535.251C572.205 532.717 560.26 528.982 548.552 530.714ZM1000.84 537.917C1020.54 541.883 996.813 553.785 990.483 557.417C967.356 570.685 943.842 588.715 926.684 609.212C920.432 616.682 914.057 632.22 903.531 637.843C902.656 608.254 922.324 592.306 943.838 573.296C959.616 559.352 974.697 548.432 1000.84 537.917ZM1052.72 562.99C1059.57 564.851 1064.43 564.539 1067.36 570.913C1035.82 577.324 1019.66 582.088 995.072 603.932C972.412 624.059 951.089 645.646 928.774 666.154C925.743 668.939 920.309 671.505 916.424 672.336C907.041 674.342 901.655 665.121 907.411 657.38C920.616 639.622 935.925 623.522 950.669 607.02C972.884 582.154 1002.25 571.113 1052.72 562.99ZM872.979 637.275C898.532 646.346 872.424 675.824 848.816 665.909C841.156 662.691 844.904 648.072 848.592 643.246C854.291 635.789 864.975 634.434 872.979 637.275ZM710.335 657.713C720.872 659.587 723.749 690.714 706.281 688.275C682.681 684.98 689.555 654.016 710.335 657.713ZM508.478 668.977C540.653 671.302 569.026 676.211 598.863 689.279C612.872 695.415 625.347 704.589 638.781 711.899C650.092 718.053 662.321 722.459 673.452 728.932C681.714 733.736 681.617 755.663 668.8 754.141C657.918 752.849 634.429 741.698 625.744 736.844C608.858 727.409 592.772 716.588 575.883 707.158C562.422 699.642 542.065 692.47 527.968 688.621C512.988 684.532 497.667 681.805 482.606 678.024C479.153 677.158 475.664 676.24 472.461 674.686C468.518 672.773 472.833 668.343 475.602 668.334C486.563 668.299 497.546 668.187 508.478 668.977ZM685.891 698.301C694.273 700.787 699.02 701.269 700.539 710.209C693.215 704.255 693.215 704.255 685.891 698.301ZM499.948 701.546C521.096 702.813 540.628 713.742 560.074 722.151C581.194 731.284 592.147 738.433 611.232 754.863C628.503 769.732 591.944 784.278 581.9 785.63C561.069 788.434 540.038 789.524 519.161 791.971C514.795 792.483 510.162 792.559 506.219 794.503C479.961 807.443 456.799 830.473 425.132 826.803C408.799 824.909 394.086 822.236 380.096 813.497C370.219 807.327 363.659 794.181 359.541 784.465C351.907 766.452 355.725 753.218 371.9 741.798C409.266 715.416 455.069 698.857 499.948 701.546ZM1057.95 747.598C1062.7 748.208 1076.03 748.865 1081.19 752.618C1086.37 756.381 1089.33 763.026 1095.04 765.91C1109.41 773.174 1125.85 775.656 1140.41 782.536C1155.88 789.839 1171.06 798.083 1184.78 808.296C1191.42 813.24 1185.84 828.887 1184.4 832.703C1181.74 839.773 1178.39 846.603 1174.63 853.156C1157.08 883.737 1133.71 905.113 1103.34 922.782C1083.17 934.515 1060.54 937.364 1037.46 936.563C1004.09 935.405 970.818 932.192 937.452 930.872C929.503 930.558 927.078 933.04 920.414 936.643C916.671 890.179 925.85 852.701 953.273 813.843C958.334 806.671 963.609 799.372 970.477 793.906C979.319 786.869 990.45 783.23 999.769 776.837C1005.34 773.016 1001.48 766.919 1003.75 761.882C1007.43 753.719 1022.67 751.021 1057.95 747.598ZM1287.3 819.926C1302.49 824.033 1298.6 846.5 1285.05 841.226C1271.94 836.125 1270.57 815.402 1287.3 819.926ZM633.215 841.918C649.581 849.891 667.332 855.492 682.311 865.837C696.086 875.35 708.085 887.576 718.409 900.755C727.451 912.299 736.612 924.889 739.782 939.206C746.018 967.371 739.137 997.511 746.032 1025.52C748.019 1033.59 760.147 1034.95 765.01 1041.69C768.91 1047.09 767.852 1054.99 771.38 1060.64C784.566 1081.77 806.719 1086.67 786.271 1109.95C773.669 1103.93 761.959 1095.5 748.465 1091.91C743.645 1090.63 737.835 1092.78 734.093 1096.08C723.546 1105.38 718.084 1124.41 724.178 1137.08C725.847 1140.55 731.207 1141.9 734.983 1141.15C740.94 1139.98 744.7 1133.09 750.643 1131.85C757.187 1130.48 764.565 1130.85 770.614 1133.7C779.374 1137.82 786.817 1144.65 793.252 1151.89C798.563 1157.86 804.125 1164.73 805.258 1172.64C806.228 1179.4 803.616 1187.11 799.024 1192.17C794.122 1197.58 786.358 1200.13 779.171 1201.41C769.511 1203.12 759.124 1203.79 749.741 1200.92C738.39 1197.45 730.013 1187.35 718.969 1183C708.46 1178.87 698.277 1205.8 693.26 1217.25C685.68 1234.54 677.216 1259.46 680.257 1279.38C682.989 1297.29 689.582 1314.38 694.245 1331.89C690.971 1334.16 688.407 1338.92 684.422 1338.72C654.942 1337.27 625.62 1332.7 596.642 1327.09C587.799 1325.38 579.428 1321.37 571.626 1316.87C565.849 1313.54 559.411 1309.84 556.41 1303.88C554.808 1300.7 557.315 1296.15 560.014 1293.83C568.884 1286.21 580.391 1282.23 589.757 1275.23C602.339 1265.82 614.464 1255.72 625.689 1244.73C635.612 1235.01 640.349 1220.63 643.668 1207.15C618.538 1227.72 593.997 1249.03 568.278 1268.86C565.292 1271.16 561.627 1272.94 557.874 1273.29C554.668 1273.59 551.476 1272.09 548.568 1270.71C530.032 1261.91 511.04 1253.78 493.69 1242.82C467.559 1226.33 440.369 1201.89 421.507 1176.85C404.875 1154.76 396.143 1125.78 374.612 1108.43C363.149 1099.2 345.228 1106.12 330.707 1103.71C322.101 1102.28 316.182 1099.8 317.215 1089.97C320.138 1062.16 348.276 1055.94 366.705 1041.5C368.454 1040.13 367.632 1037.15 368.095 1034.98C360.012 1035.06 351.659 1033.17 343.846 1035.24C330.641 1038.74 319.552 1048.59 306.182 1051.4C302.138 1052.25 298.943 1047.41 295.324 1045.42C307.292 1017.67 342.899 1008.09 371.5 1009.02C376.07 1009.17 380.745 1010.44 384.711 1012.72C393.561 1017.79 399.763 1027.5 409.423 1030.78C442.01 1041.85 475.943 1048.71 509.741 1055.2C521.757 1057.51 534.23 1058.35 546.398 1057.08C568.703 1054.73 591.215 1051.54 612.479 1044.41C641.994 1034.52 668.776 1017.72 697.75 1006.34C707.07 1002.68 713.388 1007.02 721.412 1010.32C719.814 995.166 720.047 979.7 716.619 964.848C704.608 912.812 669.148 878.479 633.215 841.918ZM591.402 850.019C595.315 850.576 613.797 851.588 619.036 856.626C636.489 873.407 652.999 891.188 668.835 909.504C690.113 934.114 706.495 960.767 709.403 993.096C697.157 993.268 670.988 992.082 657.667 997.098C627.462 1008.47 600.286 1029.93 568.325 1034.43C554.213 1036.41 539.795 1035.08 525.572 1034.19C503.611 1032.8 467.42 1026.58 447.818 1017.83C431.347 1010.48 416.548 999.826 401.309 990.178C378.663 975.841 367.708 962.428 393.124 942.959C398.098 939.149 403.439 935.772 409.031 932.947C444.356 915.096 480.498 898.889 515.79 880.974C534.647 871.401 544.183 855.479 591.402 850.019ZM357.978 959.673C367.316 963.199 355.009 979.163 351.754 984.298C347.699 990.697 341.448 996.116 334.267 998.698C328.775 1000.67 315.891 1005.39 308.639 1003C291.798 997.442 301.934 976.586 312.856 971.603C318.248 969.144 325.892 966.617 331.431 965.07C339.192 962.901 349.784 956.578 357.978 959.673ZM186.669 970.176C215.504 973.019 201.576 1012.08 177.081 1012.75C136.016 1013.87 154.29 966.984 186.669 970.176ZM1141.18 1234.8C1138.87 1259.56 1120.63 1267.29 1112.3 1290.34C1098.79 1327.72 1090.75 1367.16 1074.4 1403.38C1061.17 1432.68 1038.04 1456.7 1024.09 1485.67C1018.57 1497.14 1025.33 1513.76 1016.74 1523.17C1003.74 1537.42 984.489 1546.91 965.441 1549.96C921.859 1556.95 877.181 1551.74 833.051 1552.62C830.266 1545.08 830.404 1536.46 831.758 1528.53C817.857 1525.42 802.978 1525.19 790.055 1519.2C757.516 1504.11 725.676 1486.87 696.606 1465.86C668.902 1445.83 646.632 1419.18 620.758 1396.84C593.012 1372.89 564.116 1350.3 535.796 1327.03C537.717 1326.4 539.7 1324.35 541.559 1325.15C565.907 1335.55 588.375 1350.11 612.938 1359.99C626.181 1365.32 640.282 1368.72 654.437 1370.57C701.966 1376.78 749.73 1381.59 797.597 1384.11C833.949 1386.02 870.703 1388.53 906.802 1383.84C927.338 1381.18 946.534 1371.55 965.094 1362.37C996.088 1347.03 1025.56 1328.75 1054.96 1310.53C1087.48 1290.38 1113.21 1260.89 1141.18 1234.8ZM512.606 1344.37C516.625 1346.31 521.937 1346.65 524.662 1350.19C529.657 1356.67 530.578 1365.49 534.446 1372.69C542.595 1387.88 550.664 1403.23 560.653 1417.27C569.201 1429.29 580.931 1438.78 589.814 1450.55C627.559 1500.59 665.682 1550.59 698.55 1603.95C707.503 1618.49 712.88 1635.16 722.741 1649.1C731.261 1661.14 745.178 1668.82 753.206 1681.2C762.7 1695.83 762.159 1715.31 762.215 1732.76C758.556 1730.78 754.163 1729.77 751.238 1726.81C719.177 1694.38 686.599 1662.26 657.67 1627.01C602.112 1559.3 549.928 1488.87 498.063 1418.3C480.465 1394.36 468.122 1359.9 512.606 1344.37Z" fill="#000000" fill-rule="nonzero" opacity="1" stroke="#000000" stroke-linecap="butt" stroke-linejoin="round" stroke-width="0.0315657"/>
</g>
</svg>
